# xmcd
#
# Track frame offsets: 
#        150
#        2010
#        6808
#        29371
#        47436
#        62757
#        80046
#        97494
#        109095
#        123348
#        141659
#        160890
#        173616
#        192328
#        208228
#        226418
#        234988
#
# Disc length: 3344 seconds
#
# Revision: 0
# Processed by: cddbd v1.5.2PL0 Copyright (c) Steve Scherf et al.
# Submitted via: ExactAudioCopy v0.95b4
#
DISCID=e80d0e11
DTITLE=Meli'sa Morgan - I Remember
DYEAR=2005
DGENRE=R&B
TTITLE0=Intro: The Voice
TTITLE1=Interlude: Ain't Nothing Like The Real Thing
TTITLE2=Back Together Again
TTITLE3=I Remember
TTITLE4=Will You?
TTITLE5=Feel You
TTITLE6=High Maintenance
TTITLE7=Interlude: Ain't No Way
TTITLE8=Alright, Alright
TTITLE9=Let You Go
TTITLE10=There'll Never Be
TTITLE11=Interlude: Pack'd My Bags
TTITLE12=I'm Your Sistah
TTITLE13=Same Ole, Same Old
TTITLE14=Do You, Do You Want It?
TTITLE15=Interlude: I'm So Into You
TTITLE16=He's The One
EXTD=
EXTT0=
EXTT1=
EXTT2=
EXTT3=
EXTT4=
EXTT5=
EXTT6=
EXTT7=
EXTT8=
EXTT9=
EXTT10=
EXTT11=
EXTT12=
EXTT13=
EXTT14=
EXTT15=
EXTT16=
PLAYORDER=
